# xmcd
#
# Track frame offsets:
#	150
#	15367
#	26655
#	41790
#	54810
#	73562
#	89365
#	108002
#	126937
#	137055
#	157222
#	178375
#	194795
#	207912
# Disc length: 2963 seconds
# Revision: 1
# Processed by: cddbd v1.5.2PL0 Copyright (c) Steve Scherf et al.
#
# Submitted via: libkcddb 0.31
#
DISCID=c80b910e
DTITLE=Otis Spann - Blues Masters, Vol 10
DYEAR=1991
DGENRE=Blues
TTITLE0=Otis Spann - Good Morning Mr. Blues
TTITLE1=Otis Spann - Love, Love Love
TTITLE2=Otis Spann - Riverside Blues
TTITLE3=Otis Spann - Must Have Been The Devil
TTITLE4=Otis Spann - Jelly Roll Baker
TTITLE5=Otis Spann - Trouble In Mind
TTITLE6=Otis Spann - Worried Life Blues
TTITLE7=Otis Spann - T.B. Blues
TTITLE8=Otis Spann - Spann's Boogie
TTITLE9=Otis Spann - Don't You Know
TTITLE10=Otis Spann - Goin' Down Slow
TTITLE11=Otis Spann - The Skies Are Blue
TTITLE12=Otis Spann - Keep Your Hands Out Of My Pocket
TTITLE13=Otis Spann - Boots And Shoes
EXTD=
EXTT0=
EXTT1=
EXTT2=
EXTT3=
EXTT4=
EXTT5=
EXTT6=
EXTT7=
EXTT8=
EXTT9=
EXTT10=
EXTT11=
EXTT12=
EXTT13=
PLAYORDER=
